HIERARCHY
ROOT hip
{
  OFFSET 0 0 0
  CHANNELS 6 Xposition Yposition Zposition Zrotation Yrotation Xrotation
  JOINT abdomen
  {
    OFFSET 0 20.6881 -0.73152
    CHANNELS 3 Zrotation Xrotation Yrotation
    JOINT chest
    {
      OFFSET 0 11.7043 -0.48768
      CHANNELS 3 Zrotation Xrotation Yrotation
      JOINT neck
      {
        OFFSET 0 22.1894 -2.19456
        CHANNELS 3 Zrotation Xrotation Yrotation
        JOINT head
        {
          OFFSET -0.24384 7.07133 1.2192
          CHANNELS 3 Zrotation Xrotation Yrotation
          JOINT leftEye
          {
            OFFSET 4.14528 8.04674 8.04672
            CHANNELS 3 Zrotation Xrotation Yrotation
            End Site
            {
              OFFSET 1 0 0
            }
          }
          JOINT rightEye
          {
            OFFSET -3.6576 8.04674 8.04672
            CHANNELS 3 Zrotation Xrotation Yrotation
            End Site
            {
              OFFSET 1 0 0
            }
          }
        }
      }
      JOINT rCollar
      {
        OFFSET -2.68224 19.2634 -4.8768
        CHANNELS 3 Zrotation Xrotation Yrotation
        JOINT rShldr
        {
          OFFSET -8.77824 -1.95073 1.46304
          CHANNELS 3 Zrotation Xrotation Yrotation
          JOINT rForeArm
          {
            OFFSET -28.1742 -1.7115 0.48768
            CHANNELS 3 Zrotation Xrotation Yrotation
            JOINT rHand
            {
              OFFSET -22.5879 0.773209 7.07136
              CHANNELS 3 Zrotation Xrotation Yrotation
              JOINT rThumb1
              {
                OFFSET -1.2192 -0.487915 3.41376
                CHANNELS 3 Zrotation Xrotation Yrotation
                JOINT rThumb2
                {
                  OFFSET -3.37035 -0.52449 3.41376
                  CHANNELS 3 Zrotation Xrotation Yrotation
                  End Site
                  {
                    OFFSET -1.78271 -1.18214 1.43049
                  }
                }
              }
              JOINT rIndex1
              {
                OFFSET -7.75947 0.938293 5.60832
                CHANNELS 3 Zrotation Xrotation Yrotation
                JOINT rIndex2
                {
                  OFFSET -2.54057 -0.884171 1.56538
                  CHANNELS 3 Zrotation Xrotation Yrotation
                  End Site
                  {
                    OFFSET -1.62519 -0.234802 1.16502
                  }
                }
              }
              JOINT rMid1
              {
                OFFSET -8.24714 1.18213 3.41376
                CHANNELS 3 Zrotation Xrotation Yrotation
                JOINT rMid2
                {
                  OFFSET -3.10165 -0.590103 1.0647
                  CHANNELS 3 Zrotation Xrotation Yrotation
                  End Site
                  {
                    OFFSET -2.48547 -0.328903 0.83742
                  }
                }
              }
              JOINT rRing1
              {
                OFFSET -8.82822 0.546677 1.51678
                CHANNELS 3 Zrotation Xrotation Yrotation
                JOINT rRing2
                {
                  OFFSET -2.60934 -0.819778 -0.0198488
                  CHANNELS 3 Zrotation Xrotation Yrotation
                  End Site
                  {
                    OFFSET -2.33842 -0.294052 0.168128
                  }
                }
              }
              JOINT rPinky1
              {
                OFFSET -8.27202 -0.0477905 -0.4584
                CHANNELS 3 Zrotation Xrotation Yrotation
                JOINT rPinky2
                {
                  OFFSET -1.82734 -0.647385 -0.700984
                  CHANNELS 3 Zrotation Xrotation Yrotation
                  End Site
                  {
                    OFFSET -1.69225 -0.51767 -0.607171
                  }
                }
              }
            }
          }
        }
      }
      JOINT lCollar
      {
        OFFSET 2.68224 19.2634 -4.8768
        CHANNELS 3 Zrotation Xrotation Yrotation
        JOINT lShldr
        {
          OFFSET 8.77824 -1.95073 1.46304
          CHANNELS 3 Zrotation Xrotation Yrotation
          JOINT lForeArm
          {
            OFFSET 28.1742 -1.7115 0.48768
            CHANNELS 3 Zrotation Xrotation Yrotation
            JOINT lHand
            {
              OFFSET 22.5879 0.773209 7.07136
              CHANNELS 3 Zrotation Xrotation Yrotation
              JOINT lThumb1
              {
                OFFSET 1.2192 -0.487915 3.41376
                CHANNELS 3 Zrotation Xrotation Yrotation
                JOINT lThumb2
                {
                  OFFSET 3.37035 -0.52449 3.41376
                  CHANNELS 3 Zrotation Xrotation Yrotation
                  End Site
                  {
                    OFFSET 1.78271 -1.18214 1.43049
                  }
                }
              }
              JOINT lIndex1
              {
                OFFSET 7.75947 0.938293 5.60832
                CHANNELS 3 Zrotation Xrotation Yrotation
                JOINT lIndex2
                {
                  OFFSET 2.54057 -0.884171 1.56538
                  CHANNELS 3 Zrotation Xrotation Yrotation
                  End Site
                  {
                    OFFSET 1.62519 -0.234802 1.16502
                  }
                }
              }
              JOINT lMid1
              {
                OFFSET 8.24714 1.18213 3.41376
                CHANNELS 3 Zrotation Xrotation Yrotation
                JOINT lMid2
                {
                  OFFSET 3.10165 -0.590103 1.0647
                  CHANNELS 3 Zrotation Xrotation Yrotation
                  End Site
                  {
                    OFFSET 2.48547 -0.328903 0.83742
                  }
                }
              }
              JOINT lRing1
              {
                OFFSET 8.82822 0.546677 1.51678
                CHANNELS 3 Zrotation Xrotation Yrotation
                JOINT lRing2
                {
                  OFFSET 2.60934 -0.819778 -0.0198488
                  CHANNELS 3 Zrotation Xrotation Yrotation
                  End Site
                  {
                    OFFSET 2.33842 -0.294052 0.168128
                  }
                }
              }
              JOINT lPinky1
              {
                OFFSET 8.27202 -0.0477905 -0.4584
                CHANNELS 3 Zrotation Xrotation Yrotation
                JOINT lPinky2
                {
                  OFFSET 1.82734 -0.647385 -0.700984
                  CHANNELS 3 Zrotation Xrotation Yrotation
                  End Site
                  {
                    OFFSET 1.69225 -0.51767 -0.607171
                  }
                }
              }
            }
          }
        }
      }
    }
  }
  JOINT rButtock
  {
    OFFSET -8.77824 4.35084 1.2192
    CHANNELS 3 Zrotation Xrotation Yrotation
    JOINT rThigh
    {
      OFFSET 0 -1.70687 -2.19456
      CHANNELS 3 Zrotation Xrotation Yrotation
      JOINT rShin
      {
        OFFSET 0 -36.8199 0.73152
        CHANNELS 3 Zrotation Xrotation Yrotation
        JOINT rFoot
        {
          OFFSET 0.73152 -45.1104 -5.12064
          CHANNELS 3 Zrotation Xrotation Yrotation
          End Site
          {
            OFFSET -1.1221 -3.69964 12.103
          }
        }
      }
    }
  }
  JOINT lButtock
  {
    OFFSET 8.77824 4.35084 1.2192
    CHANNELS 3 Zrotation Xrotation Yrotation
    JOINT lThigh
    {
      OFFSET 0 -1.70687 -2.19456
      CHANNELS 3 Zrotation Xrotation Yrotation
      JOINT lShin
      {
        OFFSET 0 -36.8199 0.73152
        CHANNELS 3 Zrotation Xrotation Yrotation
        JOINT lFoot
        {
          OFFSET -0.73152 -45.1104 -5.12064
          CHANNELS 3 Zrotation Xrotation Yrotation
          End Site
          {
            OFFSET 1.1221 -3.69964 12.103
          }
        }
      }
    }
  }
}
MOTION
Frames:	6
Frame Time:	0.00833333
41.1732 10.9968 68.2652 0.0 0.0 0.0 3.32065 0.00284077 0.0895478 0.915308 0.0205961 0.158317 2.20907e-14 7.95139e-16 4.96961e-17 6.58008e-14 3.18055e-15 3.44767e-16 -0.0 0.0 0.0 -0.0 0.0 0.0 1.08326e-14 -2.91188e-17 1.49089e-16 2.29041e-13 -7.45443e-17 1.78906e-15 3.96103e-12 -1.18893e-12 -3.18055e-15 4.52377e-11 1.1321e-12 2.44903e-13 1.06737e-10 -1.27404e-13 5.34333e-13 1.84323e-10 -2.22639e-13 9.16e-13 1.06743e-10 -1.27222e-13 5.31153e-13 7.73091 5.47488 0.417314 1.06737e-10 -1.27322e-13 5.31153e-13 2.90554 0.965183 0.102902 1.06745e-10 -1.26825e-13 5.31948e-13 10.2786 0.731801 0.0259123 1.06728e-10 -1.25234e-13 5.40694e-13 2.22167 -0.733487 -0.20892 1.05375e-14 -3.45544e-17 -2.48481e-16 2.28295e-13 -3.66509e-16 7.95139e-16 3.9423e-12 1.17859e-12 -1.90833e-14 4.52799e-11 -1.23465e-12 2.83069e-13 1.06789e-10 -1.22103e-13 5.31153e-13 1.84438e-10 -2.09917e-13 9.29517e-13 1.06785e-10 -1.23246e-13 5.43875e-13 -7.73091 5.47488 -0.417314 1.0679e-10 -1.22253e-13 5.34333e-13 -2.90554 0.965183 -0.102902 1.06784e-10 -1.21756e-13 5.36719e-13 -10.2786 0.731801 -0.0259123 1.06795e-10 -1.18476e-13 5.31153e-13 -2.22167 -0.733487 0.20892 -2.03217e-16 0.0 -3.88251e-19 2.98641 -9.6316 -0.346258 0.00975227 11.8577 0.256733 -0.539732 -2.24082 0.0144023 2.03217e-16 0.0 3.88251e-19 2.06961 -1.93655 -0.0170894 0.00840917 -2.07868 0.0689525 0.451923 4.00043 -0.131468
36.8301 68.3552 20.5475 3.1538 1.1247 92.9086 1.37783 -0.994618 2.57684 2.99608 0.252051 0.993177 0.922863 -0.317067 -2.80385 -2.3184 -1.64166 -5.87091 -0.0 0.0 0.0 -0.0 0.0 0.0 8.95881e-15 2.33043e-15 7.71343e-14 -3.0533 -3.29071 16.5605 -15.7974 -13.1143 14.7319 0.247564 -11.0767 -1.45376 3.71855e-10 -7.39888e-10 4.14849e-10 6.27943e-10 -1.27795e-09 7.23609e-10 3.7186e-10 -7.39887e-10 4.14844e-10 7.73091 5.47488 0.417314 3.71855e-10 -7.39886e-10 4.14844e-10 2.90554 0.965183 0.102902 3.71861e-10 -7.39886e-10 4.14846e-10 10.2786 0.731801 0.0259123 3.71849e-10 -7.39885e-10 4.14855e-10 2.22167 -0.733487 -0.20892 8.73088e-15 2.33202e-15 7.67515e-14 0.8518 -10.7079 -26.2217 15.4996 -12.7827 -14.6637 -0.162551 -8.96418 1.20487 1.10013e-10 9.68274e-10 5.29396e-10 1.78084e-10 1.65257e-09 9.12407e-10 1.10009e-10 9.68274e-10 5.29409e-10 -7.73091 5.47488 -0.417314 1.10011e-10 9.68269e-10 5.29397e-10 -2.90554 0.965183 -0.102902 1.10008e-10 9.68274e-10 5.29401e-10 -10.2786 0.731801 -0.0259123 1.10018e-10 9.68277e-10 5.29394e-10 -2.22167 -0.733487 0.20892 -2.03217e-16 0.0 -3.88251e-19 4.43815 -9.94274 -12.9586 -7.43881 43.7771 6.0233 -2.4898 -13.9184 0.395531 2.03217e-16 0.0 3.88251e-19 -1.22615 -4.6241 10.9662 3.81052 35.2428 -3.57765 1.22563 -11.1464 1.85224
36.8584 68.3868 20.5569 3.1263 1.0999 92.897 -0.58268 -2.04508 5.21214 5.19084 0.495065 1.87718 1.88064 -0.669295 -5.74672 -5.16384 -3.26866 -12.0539 -0.0 0.0 0.0 -0.0 0.0 0.0 7.23949e-15 5.4977e-15 1.63118e-13 -4.32883 -5.83952 34.2078 -24.9205 -23.984 32.6077 -0.148464 -22.7486 -3.18114 6.62126e-10 -1.55562e-09 8.73196e-10 1.11348e-09 -2.68663e-09 1.52296e-09 6.62129e-10 -1.55562e-09 8.7319e-10 7.73091 5.47488 0.417314 6.62125e-10 -1.55562e-09 8.7319e-10 2.90554 0.965183 0.102902 6.62129e-10 -1.55562e-09 8.73193e-10 10.2786 0.731801 0.0259123 6.62123e-10 -1.55562e-09 8.73201e-10 2.22167 -0.733487 -0.20892 7.08274e-15 5.50698e-15 1.62752e-13 -7.4582 -14.4953 -55.5089 24.5625 -23.4143 -32.3404 0.0955295 -18.4194 2.57963 1.16279e-10 2.04157e-09 1.11446e-09 1.75735e-10 3.48454e-09 1.92078e-09 1.16276e-10 2.04157e-09 1.11447e-09 -7.73091 5.47488 -0.417314 1.16275e-10 2.04156e-09 1.11446e-09 -2.90554 0.965183 -0.102902 1.16276e-10 2.04157e-09 1.11446e-09 -10.2786 0.731801 -0.0259123 1.16284e-10 2.04157e-09 1.11445e-09 -2.22167 -0.733487 0.20892 -2.03217e-16 0.0 -3.88251e-19 5.83119 -9.70506 -26.2879 -41.7707 75.1069 35.9168 -4.36375 -26.2579 0.86399 2.03217e-16 0.0 3.88251e-19 -3.61024 -7.05285 22.6775 24.8789 73.661 -22.1114 3.3039 -27.1035 4.35429
36.8857 68.3929 20.5532 3.1104 1.0722 92.9057 -2.24853 -2.96659 7.56046 7.13739 0.714303 2.66308 2.67585 -0.942096 -8.41258 -7.94972 -4.71852 -17.6673 -0.0 0.0 0.0 -0.0 0.0 0.0 5.21117e-15 7.04952e-15 2.31105e-13 -4.21578 -6.65401 50.056 -27.2905 -28.4319 50.8777 -1.21948 -33.1359 -5.11325 9.02092e-10 -2.21941e-09 1.24348e-09 1.51518e-09 -3.83339e-09 2.169e-09 9.02094e-10 -2.21941e-09 1.24347e-09 7.73091 5.47488 0.417314 9.0209e-10 -2.2194e-09 1.24347e-09 2.90554 0.965183 0.102902 9.02092e-10 -2.2194e-09 1.24347e-09 10.2786 0.731801 0.0259123 9.02091e-10 -2.2194e-09 1.24348e-09 2.22167 -0.733487 -0.20892 5.11773e-15 7.06516e-15 2.30751e-13 -16.7859 -7.43309 -79.5427 27.0686 -27.8436 -50.3108 0.758543 -26.842 4.00226 1.1646e-10 2.90507e-09 1.58713e-09 1.65377e-10 4.95814e-09 2.73536e-09 1.16457e-10 2.90507e-09 1.58714e-09 -7.73091 5.47488 -0.417314 1.16454e-10 2.90505e-09 1.58712e-09 -2.90554 0.965183 -0.102902 1.16458e-10 2.90507e-09 1.58713e-09 -10.2786 0.731801 -0.0259123 1.16464e-10 2.90507e-09 1.58712e-09 -2.22167 -0.733487 0.20892 -2.03217e-16 0.0 -3.88251e-19 7.08291 -8.95321 -38.1453 -156.32 68.1119 144.402 -5.81968 -37.2662 1.41112 2.03217e-16 0.0 3.88251e-19 -4.90197 -8.60492 33.2462 162.237 68.1431 -155.44 6.74338 -41.2062 7.60489
36.9145 68.4131 20.556 3.1115 1.1024 92.9148 -3.36202 -3.58771 9.18266 8.47753 0.874706 3.20352 3.13828 -1.02602 -10.3847 -9.95241 -5.90044 -21.8131 -0.0 0.0 0.0 -0.0 0.0 0.0 2.41034e-15 4.56273e-15 2.54096e-13 -3.75694 -6.18213 61.0811 -27.3736 -27.6765 63.5497 -2.52988 -40.3984 -6.86918 1.0163e-09 -2.50334e-09 1.3936e-09 1.70732e-09 -4.32534e-09 2.43176e-09 1.0163e-09 -2.50334e-09 1.39359e-09 7.73091 5.47488 0.417314 1.01629e-09 -2.50334e-09 1.39359e-09 2.90554 0.965183 0.102902 1.01629e-09 -2.50334e-09 1.3936e-09 10.2786 0.731801 0.0259123 1.0163e-09 -2.50334e-09 1.3936e-09 2.22167 -0.733487 -0.20892 2.36055e-15 4.58137e-15 2.53749e-13 -21.2072 2.79069 -92.9739 27.2476 -27.2031 -62.7966 1.52287 -32.7305 5.18266 1.01428e-10 3.24407e-09 1.7788e-09 1.34995e-10 5.53585e-09 3.06544e-09 1.01425e-10 3.24407e-09 1.77881e-09 -7.73091 5.47488 -0.417314 1.01422e-10 3.24406e-09 1.7788e-09 -2.90554 0.965183 -0.102902 1.01426e-10 3.24407e-09 1.7788e-09 -10.2786 0.731801 -0.0259123 1.01432e-10 3.24407e-09 1.77879e-09 -2.22167 -0.733487 0.20892 -2.03217e-16 0.0 -3.88251e-19 8.04332 -8.1087 -46.3942 -174.237 48.4128 156.681 -6.65804 -44.9535 1.92785 2.03217e-16 0.0 3.88251e-19 -5.42795 -9.23595 40.6918 175.538 44.3584 -164.679 10.682 -50.8808 11.1449
36.9422 68.4345 20.5595 3.1075 1.1047 92.9216 -3.7756 -3.80474 9.79381 8.97895 0.95128 3.40305 3.17913 -0.861561 -11.358 -10.6135 -6.82358 -23.8331 -0.0 0.0 0.0 -0.0 0.0 0.0 -3.58988e-15 -9.31314e-15 2.03785e-13 -3.52759 -5.77663 65.4038 -27.4411 -26.5499 68.2293 -3.24073 -43.3766 -7.73266 9.29542e-10 -2.16674e-09 1.18251e-09 1.56509e-09 -3.74827e-09 2.0659e-09 9.29543e-10 -2.16674e-09 1.1825e-09 7.73091 5.47488 0.417314 9.29539e-10 -2.16674e-09 1.1825e-09 2.90554 0.965183 0.102902 9.29543e-10 -2.16674e-09 1.1825e-09 10.2786 0.731801 0.0259123 9.29543e-10 -2.16674e-09 1.18251e-09 2.22167 -0.733487 -0.20892 -3.62066e-15 -9.29665e-15 2.03429e-13 -22.2602 7.5834 -97.4991 27.3269 -26.1248 -67.3891 1.91295 -35.1009 5.71723 7.05484e-11 2.7683e-09 1.52699e-09 8.69415e-11 4.72225e-09 2.63105e-09 7.05474e-11 2.7683e-09 1.52701e-09 -7.73091 5.47488 -0.417314 7.0544e-11 2.76828e-09 1.52699e-09 -2.90554 0.965183 -0.102902 7.05455e-11 2.7683e-09 1.527e-09 -10.2786 0.731801 -0.0259123 7.0553e-11 2.7683e-09 1.52698e-09 -2.22167 -0.733487 0.20892 -2.03217e-16 0.0 -3.88251e-19 8.4826 -7.66137 -49.6614 -178.516 40.4722 158.347 -6.9345 -48.0037 2.16327 2.03217e-16 0.0 3.88251e-19 -5.56964 -9.39054 43.682 178.545 34.9305 -165.669 12.8068 -54.5946 13.069
